<svg width="14" height="14" viewBox="0 0 14 14" fill="none" xmlns="http://www.w3.org/2000/svg">
<path d="M7.62968 6.37031C7.6195 6.36012 7.60921 6.3501 7.59882 6.34025C7.28089 6.0388 7.06259 5.39722 7.37239 5.08742L7.82245 4.63735C7.97358 4.48623 8.20617 4.44476 8.38694 4.55877C8.59483 4.68988 8.79148 4.846 8.9726 5.02711C10.2847 6.3392 10.2847 8.46651 8.9726 9.7786L6.77363 11.9776C5.46155 13.2896 3.33424 13.2896 2.02215 11.9776C0.710064 10.6655 0.710064 8.53816 2.02215 7.22608L2.91184 6.33639C3.11757 6.13066 3.53051 6.35028 3.53485 6.64119C3.54306 7.19176 3.6787 7.63245 3.77512 7.94574L3.78068 7.96381C3.78093 7.96464 3.78182 7.96511 3.78265 7.96486C3.78423 7.96437 3.7854 7.96632 3.78424 7.96749L3.36498 8.38674C2.74414 9.00758 2.74414 10.0142 3.36498 10.635C3.98582 11.2559 4.99241 11.2559 5.61325 10.635L7.62968 8.61858C8.25052 7.99773 8.25052 6.99115 7.62968 6.37031Z" fill="#262626"/>
<path d="M7.22649 2.02215C8.53857 0.710065 10.6659 0.710064 11.978 2.02215C13.2901 3.33424 13.2901 5.46155 11.978 6.77363L11.1356 7.61601C10.9138 7.83781 10.4646 7.60075 10.4532 7.28728C10.4398 6.91943 10.3705 6.6019 10.2952 6.33885C10.2433 6.15733 10.2879 5.96075 10.4214 5.82724L10.6351 5.61361C11.2559 4.99277 11.2559 3.98619 10.6351 3.36535C10.0142 2.7445 9.00763 2.7445 8.38679 3.36534L6.37035 5.38178C5.74951 6.00262 5.74951 7.00921 6.37035 7.63005C6.38054 7.64024 6.39083 7.65026 6.40123 7.66011C6.71972 7.9621 6.93952 8.60638 6.62917 8.91673L6.18126 9.36464C6.03031 9.51559 5.79805 9.55717 5.61732 9.44355C5.4079 9.3119 5.20984 9.15492 5.02752 8.9726C3.71544 7.66051 3.71544 5.5332 5.02752 4.22111L7.22649 2.02215Z" fill="#262626"/>
</svg>
