<svg width="14" height="14" viewBox="0 0 14 14" fill="none" xmlns="http://www.w3.org/2000/svg">
<rect x="0.974976" y="1" width="12" height="12" rx="0.5" stroke="#262626" stroke-width="0.75" stroke-linejoin="round"/>
<path fill-rule="evenodd" clip-rule="evenodd" d="M2.27836 7.35316L4.12125 9.19606C4.31651 9.39132 4.6331 9.39132 4.82836 9.19606L9.25711 4.7673C9.45301 4.5714 9.77086 4.57214 9.96585 4.76895L12.9686 7.79961V1.57031C12.9686 1.29417 12.7447 1.07031 12.4686 1.07031H1.5498C1.27366 1.07031 1.0498 1.29417 1.0498 1.57031V7.87461L1.57125 7.35316C1.76651 7.1579 2.0831 7.1579 2.27836 7.35316ZM4.39804 5.85566C5.19524 5.85566 5.84149 5.2094 5.84149 4.4122C5.84149 3.61501 5.19524 2.96875 4.39804 2.96875C3.60085 2.96875 2.95459 3.61501 2.95459 4.4122C2.95459 5.2094 3.60085 5.85566 4.39804 5.85566Z" fill="#262626"/>
<path d="M4.12125 9.19606L3.94448 9.37283L4.12125 9.19606ZM2.27836 7.35316L2.45513 7.17639L2.27836 7.35316ZM4.82836 9.19606L4.65158 9.01928L4.65158 9.01928L4.82836 9.19606ZM9.25711 4.7673L9.08033 4.59053V4.59053L9.25711 4.7673ZM9.96585 4.76895L10.1434 4.59299V4.59299L9.96585 4.76895ZM12.9686 7.79961L12.791 7.97557C12.8623 8.04754 12.97 8.06936 13.0637 8.0308C13.1574 7.99224 13.2186 7.90094 13.2186 7.79961H12.9686ZM1.0498 7.87461H0.799805C0.799805 7.97573 0.860715 8.06689 0.954134 8.10558C1.04755 8.14428 1.15508 8.12289 1.22658 8.05139L1.0498 7.87461ZM1.57125 7.35316L1.39447 7.17639H1.39447L1.57125 7.35316ZM4.29803 9.01928L2.45513 7.17639L2.10158 7.52994L3.94448 9.37283L4.29803 9.01928ZM4.65158 9.01928C4.55395 9.11691 4.39566 9.11691 4.29803 9.01928L3.94448 9.37283C4.23737 9.66573 4.71224 9.66573 5.00514 9.37283L4.65158 9.01928ZM9.08033 4.59053L4.65158 9.01928L5.00513 9.37283L9.43389 4.94408L9.08033 4.59053ZM10.1434 4.59299C9.85096 4.29778 9.37419 4.29667 9.08033 4.59053L9.43389 4.94408C9.53184 4.84613 9.69076 4.8465 9.78826 4.9449L10.1434 4.59299ZM13.1461 7.62365L10.1434 4.59299L9.78826 4.9449L12.791 7.97557L13.1461 7.62365ZM12.7186 1.57031V7.79961H13.2186V1.57031H12.7186ZM12.4686 1.32031C12.6066 1.32031 12.7186 1.43224 12.7186 1.57031H13.2186C13.2186 1.1561 12.8828 0.820312 12.4686 0.820312V1.32031ZM1.5498 1.32031H12.4686V0.820312H1.5498V1.32031ZM1.2998 1.57031C1.2998 1.43224 1.41173 1.32031 1.5498 1.32031V0.820312C1.13559 0.820312 0.799805 1.1561 0.799805 1.57031H1.2998ZM1.2998 7.87461V1.57031H0.799805V7.87461H1.2998ZM1.39447 7.17639L0.873028 7.69783L1.22658 8.05139L1.74803 7.52994L1.39447 7.17639ZM2.45513 7.17639C2.16224 6.88349 1.68737 6.88349 1.39447 7.17639L1.74803 7.52994C1.84566 7.43231 2.00395 7.43231 2.10158 7.52994L2.45513 7.17639ZM5.59149 4.4122C5.59149 5.07133 5.05717 5.60566 4.39804 5.60566V6.10566C5.33331 6.10566 6.09149 5.34747 6.09149 4.4122H5.59149ZM4.39804 3.21875C5.05717 3.21875 5.59149 3.75308 5.59149 4.4122H6.09149C6.09149 3.47693 5.33331 2.71875 4.39804 2.71875V3.21875ZM3.20459 4.4122C3.20459 3.75308 3.73892 3.21875 4.39804 3.21875V2.71875C3.46277 2.71875 2.70459 3.47693 2.70459 4.4122H3.20459ZM4.39804 5.60566C3.73892 5.60566 3.20459 5.07133 3.20459 4.4122H2.70459C2.70459 5.34747 3.46277 6.10566 4.39804 6.10566V5.60566Z" fill="#262626"/>
</svg>
