<svg width="14" height="14" viewBox="0 0 14 14" fill="none" xmlns="http://www.w3.org/2000/svg">
<path fill-rule="evenodd" clip-rule="evenodd" d="M7.19025 13.187L7.19122 13.1858L7.19353 13.1831L7.20208 13.1729L7.23435 13.1341C7.26236 13.1002 7.3031 13.0502 7.35475 12.9855C7.45803 12.8561 7.60499 12.6672 7.78107 12.4282C8.13305 11.9504 8.60233 11.2708 9.07187 10.4627C10.0064 8.85428 10.9616 6.70395 10.9616 4.61174C10.9616 2.42373 9.18784 0.649994 6.99983 0.649994C4.81182 0.649994 3.03809 2.42373 3.03809 4.61174C3.03809 6.70395 3.99327 8.85428 4.9278 10.4627C5.39733 11.2708 5.86661 11.9504 6.21859 12.4282C6.39467 12.6672 6.54164 12.8561 6.64491 12.9855C6.69656 13.0502 6.7373 13.1002 6.76532 13.1341L6.79758 13.1729L6.80613 13.1831L6.80844 13.1858L6.80929 13.1868C6.85679 13.2427 6.92652 13.275 6.99983 13.275C7.07314 13.275 7.14275 13.2428 7.19025 13.187ZM7 6.25781C8.10457 6.25781 9 5.36238 9 4.25781C9 3.15324 8.10457 2.25781 7 2.25781C5.89543 2.25781 5 3.15324 5 4.25781C5 5.36238 5.89543 6.25781 7 6.25781Z" fill="#262626"/>
</svg>
