<svg width="14" height="15" viewBox="0 0 14 15" fill="none" xmlns="http://www.w3.org/2000/svg">
<path fill-rule="evenodd" clip-rule="evenodd" d="M2.12155 3.18967C2.1498 2.73733 2.51037 2.37675 2.96271 2.34851L7.33557 2.07551C7.59296 2.05944 7.84485 2.15469 8.02721 2.33705L12.8675 7.17736C13.2186 7.52841 13.2186 8.09757 12.8675 8.44862L8.22166 13.0945C7.87061 13.4455 7.30145 13.4455 6.9504 13.0945L2.11009 8.25417C1.92773 8.07181 1.83248 7.81992 1.84855 7.56253L2.12155 3.18967ZM3.76707 5.26528C3.41602 4.91424 3.41602 4.34508 3.76707 3.99403C4.11812 3.64298 4.68728 3.64298 5.03832 3.99403C5.38937 4.34508 5.38937 4.91424 5.03832 5.26528C4.68728 5.61633 4.11812 5.61633 3.76707 5.26528Z" fill="#262626"/>
</svg>
