<svg width="14" height="14" viewBox="0 0 14 14" fill="none" xmlns="http://www.w3.org/2000/svg">
<path fill-rule="evenodd" clip-rule="evenodd" d="M0.75 3.70019C0.75 3.28598 1.08579 2.9502 1.5 2.9502H12.5C12.9142 2.9502 13.25 3.28598 13.25 3.7002V10.3002C13.25 10.7144 12.9142 11.0502 12.5 11.0502H1.5C1.08579 11.0502 0.75 10.7144 0.75 10.3002V3.70019ZM9.7251 7.01207C9.7251 7.0478 9.70604 7.08081 9.6751 7.09867L5.71885 9.38282C5.68791 9.40068 5.64979 9.40068 5.61885 9.38282C5.58791 9.36495 5.56885 9.33194 5.56885 9.29622V4.72793C5.56885 4.6922 5.58791 4.65919 5.61885 4.64133C5.64979 4.62346 5.68791 4.62346 5.71885 4.64133L9.6751 6.92547C9.70604 6.94333 9.7251 6.97635 9.7251 7.01207Z" fill="#262626"/>
</svg>
