<svg width="14" height="14" viewBox="0 0 14 14" fill="none" xmlns="http://www.w3.org/2000/svg">
<circle cx="6.99985" cy="7.00001" r="6.1002" stroke="#262626" stroke-width="0.75"/>
<circle cx="6.99976" cy="3.36249" r="1" fill="#262626"/>
<path d="M5.79585 4.47851L3.40733 3.78794C3.14695 3.71266 2.88708 3.90804 2.88708 4.17908C2.88708 4.36149 3.00841 4.52165 3.18402 4.57103L5.59139 5.24802C5.80704 5.30866 5.95603 5.50534 5.95603 5.72935V7.16537C5.95603 7.21591 5.94837 7.26616 5.9333 7.31441L4.68127 11.3238C4.61638 11.5205 4.72321 11.7325 4.91989 11.7974C5.11657 11.8623 5.32861 11.7555 5.39351 11.5588L6.43793 8.39336C6.50554 8.18845 6.69698 8.05003 6.91275 8.05003H7.1614C7.37708 8.05003 7.56844 8.18832 7.63614 8.3931L8.68379 11.5624C8.7488 11.7591 8.9609 11.8658 9.15754 11.8008C9.35418 11.7358 9.4609 11.5237 9.3959 11.327L8.06886 7.31815C8.05208 7.26746 8.04353 7.21441 8.04353 7.16102V5.7446C8.04353 5.52156 8.19127 5.32548 8.40566 5.26398L10.8183 4.57191C10.9925 4.52195 11.1125 4.36268 11.1125 4.18149C11.1125 3.90999 10.8512 3.71493 10.5909 3.79206L8.28356 4.47572C8.14523 4.51671 8.00171 4.53753 7.85743 4.53753H6.21246C6.07151 4.53753 5.93126 4.51766 5.79585 4.47851Z" fill="#262626"/>
</svg>
