<svg width="14" height="15" viewBox="0 0 14 15" fill="none" xmlns="http://www.w3.org/2000/svg">
<path d="M12.1712 11.6328H1.8306C1.33736 11.6328 0.9375 11.233 0.9375 10.7397C0.9375 10.2533 1.32669 9.85639 1.81298 9.8468L1.8875 9.84533C2.41518 9.83491 2.8375 9.40417 2.8375 8.87639V5.37446C2.8375 3.07329 4.70297 1.20782 7.00413 1.20782C9.30695 1.20782 11.1731 3.07587 11.1708 5.37869L11.1672 8.87695C11.1667 9.40426 11.5885 9.83491 12.1157 9.84532L12.1888 9.84676C12.6758 9.85637 13.0653 10.2544 13.0643 10.7415C13.0633 11.2341 12.6637 11.6328 12.1712 11.6328Z" stroke="#262626" stroke-width="0.75" stroke-linecap="round" stroke-linejoin="round"/>
<path d="M8.71069 11.6063C8.71069 12.5512 7.94468 13.3172 6.99976 13.3172C6.05483 13.3172 5.28882 12.5512 5.28882 11.6063" stroke="#262626" stroke-width="0.75"/>
</svg>
