<svg width="15" height="14" viewBox="0 0 15 14" fill="none" xmlns="http://www.w3.org/2000/svg">
<path d="M12.664 11.375H2.3234C1.83015 11.375 1.4303 10.9752 1.4303 10.4819C1.4303 9.99553 1.81949 9.59858 2.30577 9.58898L2.3803 9.58751C2.90797 9.5771 3.3303 9.14636 3.3303 8.61858V5.11664C3.3303 2.81548 5.19577 0.950012 7.49693 0.950012C9.79975 0.950012 11.6659 2.81806 11.6636 5.12087L11.66 8.61914C11.6595 9.14645 12.0813 9.5771 12.6085 9.5875L12.6816 9.58895C13.1686 9.59856 13.5581 9.99662 13.5571 10.4837C13.5561 10.9763 13.1565 11.375 12.664 11.375Z" stroke="#262626" stroke-width="0.75" stroke-linecap="round" stroke-linejoin="round"/>
<path d="M9.20349 11.3484C9.20349 12.2934 8.43748 13.0594 7.49255 13.0594C6.54763 13.0594 5.78162 12.2934 5.78162 11.3484" stroke="#262626" stroke-width="0.75"/>
<circle cx="11.434" cy="3.04999" r="2.125" fill="#7342FF"/>
</svg>
