<svg width="15" height="15" viewBox="0 0 15 15" fill="none" xmlns="http://www.w3.org/2000/svg">
<path d="M7.00758 4.30442V11.712C7.00758 10.6309 8.40901 10.394 9.10973 10.4107H12.9637C13.019 10.4107 13.0638 10.3659 13.0638 10.3106V2.30237C13.0638 2.24709 13.0196 2.20227 12.9644 2.20227H9.10973C7.38797 2.20227 6.99089 3.60371 7.00758 4.30442Z" stroke="#262626" stroke-width="0.75" stroke-linejoin="round"/>
<path d="M6.95702 4.30442V11.712C6.95702 10.6309 5.55559 10.394 4.85487 10.4107H1.00092C0.945636 10.4107 0.900819 10.3659 0.900819 10.3106V2.30237C0.900819 2.24709 0.944961 2.20227 1.00025 2.20227H4.85487C6.57663 2.20227 6.97371 3.60371 6.95702 4.30442Z" stroke="#262626" stroke-width="0.75" stroke-linejoin="round"/>
</svg>
