<svg width="15" height="15" viewBox="0 0 15 15" fill="none" xmlns="http://www.w3.org/2000/svg">
<circle cx="5.27144" cy="5.27248" r="2.66023" stroke="#262626" stroke-width="0.75"/>
<path d="M8.19446 2.65562C8.35046 2.62713 8.51122 2.61224 8.67545 2.61224C10.1447 2.61224 11.3357 3.80327 11.3357 5.27248C11.3357 6.17182 10.8894 6.96693 10.2062 7.44843" stroke="#262626" stroke-width="0.75" stroke-linecap="round" stroke-linejoin="round"/>
<path d="M8.39375 7.63969L8.65892 7.37452L8.65892 7.37452L8.39375 7.63969ZM2.1675 7.63969L2.43266 7.90485H2.43266L2.1675 7.63969ZM11.7977 7.63969L12.0628 7.37452V7.37452L11.7977 7.63969ZM11.2049 6.51663C11.0585 6.37018 10.821 6.37018 10.6746 6.51663C10.5281 6.66307 10.5281 6.90051 10.6746 7.04696L11.2049 6.51663ZM11.0938 11.0085C10.8866 11.0085 10.7188 11.1764 10.7188 11.3835C10.7188 11.5906 10.8866 11.7585 11.0938 11.7585V11.0085ZM1.26352 11.7585H9.29772V11.0085H1.26352V11.7585ZM10.0322 11.024V10.6899H9.2822V11.024H10.0322ZM0.529053 10.6899V11.024H1.27905V10.6899H0.529053ZM8.65892 7.37452L7.73408 6.44968L7.20375 6.98001L8.12859 7.90485L8.65892 7.37452ZM2.82717 6.44968L1.90233 7.37452L2.43266 7.90485L3.3575 6.98001L2.82717 6.44968ZM1.27905 10.6899C1.27905 9.64531 1.69402 8.64349 2.43266 7.90485L1.90233 7.37452C1.02304 8.25382 0.529053 9.4464 0.529053 10.6899H1.27905ZM10.0322 10.6899C10.0322 9.4464 9.53821 8.25382 8.65892 7.37452L8.12859 7.90485C8.86723 8.64349 9.2822 9.64531 9.2822 10.6899H10.0322ZM9.29772 11.7585C9.70336 11.7585 10.0322 11.4297 10.0322 11.024H9.2822C9.2822 11.0154 9.28915 11.0085 9.29772 11.0085V11.7585ZM1.26352 11.0085C1.2721 11.0085 1.27905 11.0154 1.27905 11.024H0.529053C0.529053 11.4297 0.857887 11.7585 1.26352 11.7585V11.0085ZM13.4361 11.024V10.6899H12.6861V11.024H13.4361ZM12.0628 7.37452L11.2049 6.51663L10.6746 7.04696L11.5325 7.90485L12.0628 7.37452ZM13.4361 10.6899C13.4361 9.4464 12.9421 8.25382 12.0628 7.37452L11.5325 7.90485C12.2711 8.6435 12.6861 9.64531 12.6861 10.6899H13.4361ZM12.6861 11.024C12.6861 11.0154 12.6931 11.0085 12.7016 11.0085V11.7585C13.1073 11.7585 13.4361 11.4297 13.4361 11.024H12.6861ZM11.0938 11.7585H12.7016V11.0085H11.0938V11.7585Z" fill="#262626"/>
</svg>
