<svg width="15" height="15" viewBox="0 0 15 15" fill="none" xmlns="http://www.w3.org/2000/svg">
<path d="M7.00721 7.7079C7.42185 7.7079 7.75798 7.37177 7.75798 6.95713C7.75798 6.54249 7.42185 6.20636 7.00721 6.20636C6.59258 6.20636 6.25644 6.54249 6.25644 6.95713C6.25644 7.37177 6.59258 7.7079 7.00721 7.7079Z" fill="#262626"/>
<path d="M11.4618 7.7079C11.8764 7.7079 12.2125 7.37177 12.2125 6.95713C12.2125 6.54249 11.8764 6.20636 11.4618 6.20636C11.0471 6.20636 10.711 6.54249 10.711 6.95713C10.711 7.37177 11.0471 7.7079 11.4618 7.7079Z" fill="#262626"/>
<path d="M2.55265 7.7079C2.96729 7.7079 3.30342 7.37177 3.30342 6.95713C3.30342 6.54249 2.96729 6.20636 2.55265 6.20636C2.13801 6.20636 1.80188 6.54249 1.80188 6.95713C1.80188 7.37177 2.13801 7.7079 2.55265 7.7079Z" fill="#262626"/>
<path d="M7.00721 7.7079C7.42185 7.7079 7.75798 7.37177 7.75798 6.95713C7.75798 6.54249 7.42185 6.20636 7.00721 6.20636C6.59258 6.20636 6.25644 6.54249 6.25644 6.95713C6.25644 7.37177 6.59258 7.7079 7.00721 7.7079Z" stroke="#262626" stroke-width="0.500513" stroke-linecap="round" stroke-linejoin="round"/>
<path d="M11.4618 7.7079C11.8764 7.7079 12.2125 7.37177 12.2125 6.95713C12.2125 6.54249 11.8764 6.20636 11.4618 6.20636C11.0471 6.20636 10.711 6.54249 10.711 6.95713C10.711 7.37177 11.0471 7.7079 11.4618 7.7079Z" stroke="#262626" stroke-width="0.500513" stroke-linecap="round" stroke-linejoin="round"/>
<path d="M2.55265 7.7079C2.96729 7.7079 3.30342 7.37177 3.30342 6.95713C3.30342 6.54249 2.96729 6.20636 2.55265 6.20636C2.13801 6.20636 1.80188 6.54249 1.80188 6.95713C1.80188 7.37177 2.13801 7.7079 2.55265 7.7079Z" stroke="#262626" stroke-width="0.500513" stroke-linecap="round" stroke-linejoin="round"/>
</svg>
