<svg width="15" height="15" viewBox="0 0 15 15" fill="none" xmlns="http://www.w3.org/2000/svg">
<path d="M5.64148 6.87491L12.713 6.87491" stroke="#262626" stroke-width="0.75" stroke-linecap="round" stroke-linejoin="round"/>
<path d="M1.20117 6.87491L3.01017 6.87491" stroke="#262626" stroke-width="0.75" stroke-linecap="round" stroke-linejoin="round"/>
<path d="M5.6414 6.87489C5.6414 6.14828 5.05237 5.55925 4.32577 5.55925C3.59916 5.55925 3.01013 6.14828 3.01013 6.87489C3.01013 7.60149 3.59916 8.19052 4.32577 8.19052C5.05237 8.19052 5.6414 7.60149 5.6414 6.87489Z" stroke="#262626" stroke-width="0.75" stroke-linecap="round" stroke-linejoin="round"/>
<path d="M10.9039 2.27017L12.7129 2.27017" stroke="#262626" stroke-width="0.75" stroke-linecap="round" stroke-linejoin="round"/>
<path d="M1.20117 2.27017L8.2727 2.27017" stroke="#262626" stroke-width="0.75" stroke-linecap="round" stroke-linejoin="round"/>
<path d="M10.904 2.27018C10.904 1.54358 10.3149 0.954547 9.58834 0.954547C8.86173 0.954547 8.2727 1.54358 8.27271 2.27018C8.27271 2.99679 8.86173 3.58582 9.58834 3.58582C10.3149 3.58582 10.904 2.99679 10.904 2.27018Z" stroke="#262626" stroke-width="0.75" stroke-linecap="round" stroke-linejoin="round"/>
<path d="M8.76611 11.6441L12.713 11.6441" stroke="#262626" stroke-width="0.75" stroke-linecap="round" stroke-linejoin="round"/>
<path d="M1.20117 11.6441L6.1348 11.6441" stroke="#262626" stroke-width="0.75" stroke-linecap="round" stroke-linejoin="round"/>
<path d="M8.76603 11.6441C8.76603 10.9175 8.177 10.3284 7.4504 10.3284C6.72379 10.3284 6.13477 10.9175 6.13477 11.6441C6.13477 12.3707 6.72379 12.9597 7.4504 12.9597C8.177 12.9597 8.76603 12.3707 8.76603 11.6441Z" stroke="#262626" stroke-width="0.75" stroke-linecap="round" stroke-linejoin="round"/>
</svg>
