<svg width="14" height="14" viewBox="0 0 14 14" fill="none" xmlns="http://www.w3.org/2000/svg">
<path d="M8.73693 9.79427L11.8754 6.65584C13.155 5.37623 13.155 3.30157 11.8754 2.02196C10.5958 0.742354 8.5211 0.742353 7.24149 2.02196L4.92455 4.3389C3.64494 5.61851 3.64494 7.69317 4.92455 8.97278C5.27685 9.32508 5.68942 9.58038 6.12907 9.7387" stroke="#262626" stroke-width="0.75" stroke-linecap="round" stroke-linejoin="round"/>
<path d="M9.59377 6.43752L10.48 5.55132C11.0692 4.96207 11.0692 4.00669 10.48 3.41744C9.89072 2.82818 8.93535 2.82818 8.34609 3.41744L6.32012 5.44341C5.73086 6.03267 5.73086 6.98804 6.32012 7.5773C6.68791 7.94509 7.19833 8.08332 7.67334 7.99199" stroke="#262626" stroke-width="0.75" stroke-linecap="round" stroke-linejoin="round"/>
<path d="M4.55129 4.78764C4.39058 4.89871 4.23758 5.02578 4.09452 5.16884L1.77758 7.48578C0.497969 8.76539 0.497969 10.84 1.77758 12.1197C3.05719 13.3993 5.13184 13.3993 6.41145 12.1197L8.72839 9.80272C10.008 8.52311 10.008 6.44845 8.72839 5.16884C8.37575 4.8162 7.96273 4.56074 7.5226 4.40247" stroke="#262626" stroke-width="0.75" stroke-linecap="round" stroke-linejoin="round"/>
<path d="M6.04876 6.13801C6.5037 6.07217 6.98295 6.21427 7.333 6.56432C7.92226 7.15357 7.92226 8.10895 7.333 8.6982L5.30703 10.7242C4.71777 11.3134 3.7624 11.3134 3.17314 10.7242C2.58389 10.1349 2.58389 9.17955 3.17314 8.59029L3.99891 7.76453" stroke="#262626" stroke-width="0.75" stroke-linecap="round" stroke-linejoin="round"/>
</svg>
