<svg width="14" height="14" viewBox="0 0 14 14" fill="none" xmlns="http://www.w3.org/2000/svg">
<path d="M3.63855 1.79999L12.1473 11.6389" stroke="black" stroke-width="0.75" stroke-linecap="round" stroke-linejoin="round"/>
<path d="M5.02353 6.01279C4.90084 6.27156 4.82897 6.55438 4.8151 6.84598C4.78753 7.42546 4.99127 7.99215 5.38151 8.42141C5.77175 8.85068 6.31652 9.10735 6.89599 9.13497C7.24971 9.15183 7.59867 9.0825 7.91453 8.93717" stroke="black" stroke-width="0.75" stroke-linecap="round" stroke-linejoin="round"/>
<path d="M3.30122 3.9903C1.62306 5.21936 0.900024 6.93591 0.900024 6.93591C0.900024 6.93591 2.65427 11.0998 7.03987 11.0998C7.82626 11.1064 8.60514 10.9617 9.33885 10.6749" stroke="black" stroke-width="0.75" stroke-linecap="round" stroke-linejoin="round"/>
<path d="M6.74939 2.90525C6.84032 2.9016 6.93134 2.89985 7.0224 2.9C11.3636 2.9 13.1001 6.97445 13.1001 6.97445C13.1001 6.97445 12.6967 7.92074 11.7927 8.90114" stroke="black" stroke-width="0.75" stroke-linecap="round" stroke-linejoin="round"/>
<path d="M8.01758 5.01349C8.24203 5.13151 8.44572 5.28841 8.61851 5.47847C8.76598 5.6407 8.88725 5.82304 8.97941 6.01889" stroke="black" stroke-width="0.75" stroke-linecap="round" stroke-linejoin="round"/>
</svg>
