<svg width="15" height="15" viewBox="0 0 15 15" fill="none" xmlns="http://www.w3.org/2000/svg">
<path d="M1.1012 13.0133H12.9133C12.9686 13.0133 13.0134 12.9685 13.0134 12.9132V4.44596C13.0134 4.41941 13.0029 4.39395 12.9841 4.37517L9.63924 1.03033C9.62047 1.01155 9.595 1.00101 9.56846 1.00101H1.1012C1.04592 1.00101 1.0011 1.04582 1.0011 1.10111V12.9132C1.0011 12.9685 1.04592 13.0133 1.1012 13.0133Z" stroke="#262626" stroke-width="0.75" stroke-linejoin="round"/>
<rect x="4.90515" y="1.00101" width="4.10421" height="1.90196" rx="0.100103" stroke="#262626" stroke-width="0.75" stroke-linejoin="round"/>
<rect x="3.40356" y="7.00717" width="7.10728" height="6.00614" rx="0.100103" stroke="#262626" stroke-width="0.75" stroke-linejoin="round"/>
<path d="M5.00525 8.65915C4.79814 8.65915 4.63025 8.82704 4.63025 9.03415C4.63025 9.24126 4.79814 9.40915 5.00525 9.40915V8.65915ZM9.00935 9.40915C9.21646 9.40915 9.38435 9.24126 9.38435 9.03415C9.38435 8.82704 9.21646 8.65915 9.00935 8.65915V9.40915ZM5.00525 9.40915H9.00935V8.65915H5.00525V9.40915Z" fill="#262626"/>
<path d="M5.00525 10.6241C4.79814 10.6241 4.63025 10.792 4.63025 10.9991C4.63025 11.2062 4.79814 11.3741 5.00525 11.3741V10.6241ZM9.00935 11.3741C9.21646 11.3741 9.38435 11.2062 9.38435 10.9991C9.38435 10.792 9.21646 10.6241 9.00935 10.6241V11.3741ZM5.00525 11.3741H9.00935V10.6241H5.00525V11.3741Z" fill="#262626"/>
</svg>
