<svg width="15" height="15" viewBox="0 0 15 15" fill="none" xmlns="http://www.w3.org/2000/svg">
<path d="M5.67798 1.84078C5.67798 1.48757 5.96432 1.20123 6.31753 1.20123H7.59661C7.94982 1.20123 8.23616 1.48757 8.23616 1.84078V2.20454C8.23616 2.47814 8.41978 2.71583 8.67247 2.82074C8.92524 2.92569 9.21956 2.88569 9.4131 2.69216L9.6704 2.43486C9.92016 2.1851 10.3251 2.1851 10.5749 2.43486L11.4793 3.33931C11.7291 3.58907 11.7291 3.994 11.4793 4.24376L11.222 4.50102C11.0285 4.69457 10.9885 4.98891 11.0934 5.24171C11.1984 5.49441 11.4361 5.67804 11.7097 5.67804H12.0734C12.4266 5.67804 12.713 5.96438 12.713 6.31759V7.59667C12.713 7.94988 12.4266 8.23622 12.0734 8.23622H11.7097C11.4361 8.23622 11.1984 8.41985 11.0935 8.67254C10.9885 8.92533 11.0285 9.21966 11.222 9.4132L11.4793 9.67047C11.7291 9.92023 11.7291 10.3252 11.4793 10.5749L10.5749 11.4794C10.3251 11.7291 9.92017 11.7291 9.67041 11.4794L9.41314 11.2221C9.21959 11.0286 8.92526 10.9886 8.67248 11.0935C8.41979 11.1984 8.23616 11.4361 8.23616 11.7097V12.0735C8.23616 12.4267 7.94982 12.713 7.59661 12.713H6.31753C5.96432 12.713 5.67798 12.4267 5.67798 12.0735V11.7097C5.67798 11.4361 5.49435 11.1984 5.24165 11.0935C4.98885 10.9886 4.69451 11.0286 4.50096 11.2221L4.24369 11.4794C3.99393 11.7291 3.58899 11.7291 3.33924 11.4794L2.43478 10.5749C2.18503 10.3252 2.18503 9.92023 2.43478 9.67047L2.6921 9.41316C2.88563 9.21963 2.92563 8.92531 2.82068 8.67253C2.71577 8.41984 2.47808 8.23622 2.20448 8.23622H1.84072C1.48751 8.23622 1.20117 7.94989 1.20117 7.59668V6.31759C1.20117 5.96438 1.48751 5.67804 1.84072 5.67804L2.20447 5.67804C2.47807 5.67804 2.71577 5.49441 2.82068 5.24172C2.92564 4.98894 2.88564 4.69461 2.6921 4.50106L2.43479 4.24376C2.18504 3.994 2.18504 3.58907 2.43479 3.33931L3.33925 2.43486C3.589 2.1851 3.99394 2.1851 4.2437 2.43486L4.501 2.69216C4.69454 2.8857 4.98887 2.9257 5.24166 2.82075C5.49435 2.71583 5.67798 2.47813 5.67798 2.20453V1.84078Z" stroke="#262626" stroke-width="0.75"/>
<circle cx="7.00709" cy="7.00721" r="2.22767" stroke="#262626" stroke-width="0.75"/>
</svg>
