<svg width="15" height="15" viewBox="0 0 15 15" fill="none" xmlns="http://www.w3.org/2000/svg">
<path d="M12.4095 1.01887L1.34713 4.13903C1.25406 4.16528 1.17123 4.21931 1.10969 4.2939C1.04815 4.36849 1.01085 4.46008 1.00276 4.55644C0.994676 4.6528 1.01619 4.74933 1.06443 4.83313C1.11268 4.91693 1.18535 4.98401 1.27274 5.02541L6.3555 7.43303C6.45463 7.47999 6.53446 7.55981 6.58142 7.65895L8.98904 12.7417C9.03043 12.8291 9.09751 12.9018 9.18132 12.95C9.26512 12.9983 9.36165 13.0198 9.45801 13.0117C9.55436 13.0036 9.64596 12.9663 9.72055 12.9048C9.79513 12.8432 9.84916 12.7604 9.87541 12.6673L12.9956 1.60494C13.0185 1.52368 13.0193 1.43778 12.998 1.35608C12.9767 1.27439 12.934 1.19985 12.8743 1.14015C12.8146 1.08045 12.7401 1.03774 12.6584 1.01643C12.5767 0.995109 12.4908 0.995953 12.4095 1.01887Z" stroke="#262626" stroke-width="0.75" stroke-linecap="round" stroke-linejoin="round"/>
<path d="M6.50671 7.5077L9.10938 4.90503" stroke="#262626" stroke-width="0.75" stroke-linecap="round" stroke-linejoin="round"/>
</svg>
