<svg width="15" height="14" viewBox="0 0 15 14" fill="none" xmlns="http://www.w3.org/2000/svg">
<path d="M2.48999 4.41182V9.31384C2.48999 9.36799 2.53388 9.41188 2.58803 9.41188H4.90588C4.92585 9.41188 4.94534 9.41798 4.96175 9.42936L8.31655 11.7561C8.38157 11.8012 8.47046 11.7547 8.47046 11.6756V2.05007C8.47046 1.97095 8.38157 1.92442 8.31655 1.96951L4.96175 4.2963C4.94534 4.30768 4.92585 4.31378 4.90588 4.31378H2.58803C2.53388 4.31378 2.48999 4.35767 2.48999 4.41182Z" stroke="#262626" stroke-width="0.75" stroke-linecap="round" stroke-linejoin="round"/>
<path d="M10.2224 9.49719C10.9211 8.79852 11.3136 7.85091 11.3136 6.86284C11.3136 5.87476 10.9211 4.92716 10.2224 4.22848" stroke="#262626" stroke-width="0.75" stroke-linecap="round" stroke-linejoin="round"/>
<path d="M11.8168 11.0917C12.9384 9.9701 13.5685 8.44895 13.5685 6.86283C13.5685 5.27671 12.9384 3.75555 11.8169 2.634" stroke="#262626" stroke-width="0.75" stroke-linecap="round" stroke-linejoin="round"/>
</svg>
